<svg xmlns:dc="http://purl.org/dc/elements/1.1/" xmlns:cc="http://creativecommons.org/ns#" xmlns:rdf="http://www.w3.org/1999/02/22-rdf-syntax-ns#" xmlns:svg="http://www.w3.org/2000/svg" xmlns="http://www.w3.org/2000/svg" xmlns:xlink="http://www.w3.org/1999/xlink" xmlns:sodipodi="http://sodipodi.sourceforge.net/DTD/sodipodi-0.dtd" xmlns:inkscape="http://www.inkscape.org/namespaces/inkscape" version="1.1" id="svg2" width="142" height="61" viewBox="0 0 142 61" sodipodi:docname="mini-sky-1.svg" inkscape:version="0.92.2 (5c3e80d, 2017-08-06)">
  
  <defs id="defs6"/>
  
  
  <g id="g12">
    
    <path style="fill:#6ec6e6" d="M 1,50.964817 C 1,40.595223 2.1421782,37.988438 7.9936621,35.003233 c 2.7479099,-1.401879 4.1260109,-3.028069 5.4056729,-6.378817 2.062871,-5.401552 8.039306,-11.076338 13.336573,-12.663438 3.172501,-0.950505 4.541536,-0.871895 7.684291,0.441232 5.486794,2.292529 6.889268,2.031353 10.689356,-1.990627 C 49.289507,9.9875587 59.298789,5.0015778 64,5.0015778 c 1.925,0 6.352905,1.349645 9.839788,2.9992111 7.185992,3.3995311 10.306372,3.7382061 12.287767,1.3336736 0.754845,-0.9160457 3.713329,-3.1660457 6.574408,-5 C 97.139528,1.4899801 98.798505,1 103.9918,1 c 4.01362,0 7.36039,0.649187 9.82265,1.9053417 5.72174,2.9190128 12.63213,10.9123823 14.6275,16.9198973 1.41746,4.267558 2.42379,5.575782 5.49393,7.14205 2.06724,1.054625 4.50235,3.05259 5.41137,4.439922 2.49214,3.803489 2.13068,10.484301 -0.76248,14.092789 l -2.40529,3 H 74.699217 C 5.5562299,48.5 9.894495,48.004673 8.6086388,56.045976 8.0123756,59.774801 7.7776977,60 4.4881824,60 H 1 Z" id="path14" inkscape:connector-curvature="0"/>
  </g>
</svg>