<svg xmlns:dc="http://purl.org/dc/elements/1.1/" xmlns:cc="http://creativecommons.org/ns#" xmlns:rdf="http://www.w3.org/1999/02/22-rdf-syntax-ns#" xmlns:svg="http://www.w3.org/2000/svg" xmlns="http://www.w3.org/2000/svg" xmlns:xlink="http://www.w3.org/1999/xlink" xmlns:sodipodi="http://sodipodi.sourceforge.net/DTD/sodipodi-0.dtd" xmlns:inkscape="http://www.inkscape.org/namespaces/inkscape" version="1.1" id="svg2" width="51" height="49" viewBox="0 0 51 49" sodipodi:docname="mini-sky-2.svg" inkscape:version="0.92.2 (5c3e80d, 2017-08-06)">
  <path style="fill:#6ec6e6" d="M 5,37.5 C 5,31.089744 4.5890269,26 4.0714286,26 1.945048,26 0,22.634027 0,18.954252 0,15.645007 0.4481044,14.819637 2.9460325,13.527908 4.5663503,12.690009 6.9077482,12.115953 8.1491387,12.252228 9.9436028,12.449217 10.860102,11.557805 12.62074,7.903027 16.623189,-0.40536208 24.772815,-2.0733387 30.989636,4.1434817 33.68502,6.8388663 34.395469,7.0632415 38.354677,6.4695217 45.821958,5.3497337 51,9.2523006 51,16 51,24.172447 47.1205,26 29.772166,26 11.873949,26 12,25.907394 12,39.056704 V 49 H 8.5 5 Z" id="path14" inkscape:connector-curvature="0"/>
</svg>