<?xml version="1.0" encoding="utf-8"?>
<!-- Generator: Adobe Illustrator 22.0.1, SVG Export Plug-In . SVG Version: 6.00 Build 0)  -->
<svg version="1.1" id="Layer_1" xmlns="http://www.w3.org/2000/svg" xmlns:xlink="http://www.w3.org/1999/xlink" x="0px" y="0px"
	 viewBox="0 0 742.3 264.3" style="enable-background:new 0 0 742.3 264.3;" xml:space="preserve">
<style type="text/css">
	.st0{fill:#F2D83E;}
	.st1{fill:url(#SVGID_1_);}
	.st2{fill:url(#SVGID_2_);}
	.st3{fill:url(#SVGID_3_);}
	.st4{fill:url(#SVGID_4_);}
	.st5{fill:url(#SVGID_5_);}
	.st6{fill:#5D89A9;}
	.st7{opacity:0.2;fill:#FFFFFF;enable-background:new    ;}
	.st8{opacity:0.1;fill:#FFFFFF;enable-background:new    ;}
	.st9{fill:#FFFFFF;}
	.st10{fill:url(#SVGID_6_);}
	.st11{fill:none;}
</style>
<g>
	<path class="st0" d="M259.1,122.6L141.7,5.2c-5.5-5.5-14.5-5.5-20.1,0L4.2,122.6c-5.5,5.5-5.5,14.5,0,20.1l117.4,117.4
		c5.5,5.5,14.5,5.5,20.1,0l117.4-117.4C264.6,137.1,264.6,128.1,259.1,122.6z M246.5,141.7L140.7,247.5c-5,5-13.1,5-18.1,0
		L16.8,141.7c-5-5-5-13.1,0-18.1L122.6,17.8c5-5,13.1-5,18.1,0l105.8,105.8C251.5,128.6,251.5,136.7,246.5,141.7z"/>
	<g>
		
			<linearGradient id="SVGID_1_" gradientUnits="userSpaceOnUse" x1="77.65" y1="455.299" x2="77.65" y2="328.9806" gradientTransform="matrix(1 0 0 1 0 -305.699)">
			<stop  offset="0" style="stop-color:#45637A"/>
			<stop  offset="1" style="stop-color:#547694"/>
		</linearGradient>
		<path class="st1" d="M36.3,148.8c5.1-25.4,33.2-42.1,64.5-53c9.7-31,26.4-62.1,32.2-72.4c-2.3-0.4-4.7,0.2-6.4,2L24.4,127.5
			c-2.8,2.8-2.8,7.3,0,10.1l12,12C36.3,149.1,36.3,148.8,36.3,148.8z"/>
		
			<linearGradient id="SVGID_2_" gradientUnits="userSpaceOnUse" x1="128.389" y1="516.499" x2="128.389" y2="415.999" gradientTransform="matrix(1 0 0 1 0 -305.699)">
			<stop  offset="0" style="stop-color:#45637A"/>
			<stop  offset="1" style="stop-color:#547694"/>
		</linearGradient>
		<path class="st2" d="M74.6,173.8c24.7,22.8,81,35,91,37l27.7-27.7c-14.7,1.8-55.8,4.1-87.5-18.6c-14-10-14.4-31.1-9-54.2
			C57.3,131.1,57.1,157.6,74.6,173.8z"/>
		
			<linearGradient id="SVGID_3_" gradientUnits="userSpaceOnUse" x1="158.25" y1="393.499" x2="158.25" y2="342.199" gradientTransform="matrix(1 0 0 1 0 -305.699)">
			<stop  offset="0" style="stop-color:#45637A"/>
			<stop  offset="1" style="stop-color:#547694"/>
		</linearGradient>
		<path class="st3" d="M188.6,77.3l-40.8-40.8c-8.8,20.3-15.3,37.2-19.9,51.3C153.3,81.5,177.1,78.5,188.6,77.3z"/>
		
			<linearGradient id="SVGID_4_" gradientUnits="userSpaceOnUse" x1="179.5319" y1="475.0753" x2="179.5319" y2="390.399" gradientTransform="matrix(1 0 0 1 0 -305.699)">
			<stop  offset="0" style="stop-color:#45637A"/>
			<stop  offset="1" style="stop-color:#547694"/>
		</linearGradient>
		<path class="st4" d="M238.9,127.5L196,84.7c-29.3,3.4-52.9,8.4-71.6,14.4c-15.4,53.5,0.9,58.1,10.6,64c11.1,6.7,59.8,6.4,72.3,6.2
			l31.6-31.6C241.7,134.9,241.7,130.3,238.9,127.5z"/>
		
			<linearGradient id="SVGID_5_" gradientUnits="userSpaceOnUse" x1="120.4" y1="547.699" x2="120.4" y2="500.799" gradientTransform="matrix(1 0 0 1 0 -305.699)">
			<stop  offset="0" style="stop-color:#45637A"/>
			<stop  offset="1" style="stop-color:#547694"/>
		</linearGradient>
		<path class="st5" d="M81.7,195.1l44.8,44.8c2.8,2.8,7.3,2.8,10.1,0l22.5-22.5C124.5,211.5,99.6,203.5,81.7,195.1z"/>
	</g>
	<path class="st6" d="M122.5,105.9l1.8,26.7l6.9-18.4l-2.3,20l23.8-31.7l-16.9,37.6l12.5-9l-7.9,12l37.1-16.4l-32.2,24.6l18.9-4.1
		l-18.2,8.2l38.9,4.9l-37.6,4.3c0,0-3.3,0.8-1.3,1.8C146,166.4,99.5,166,122.5,105.9z"/>
	<path class="st6" d="M93.3,140.1l-22.7-9.2l-1.7,2.7L91,149.5l-8.7,1.5l9.7,3.3l-27.2,4.5c0,0,1.2,4.7,2.2,5.2h25l-17.1,9.5
		l18.4-3.8l-12.1,9.4c0,0,3.6,2.7,6.4,4.2l10.3-5.9l-5.2,8.9l8-4.8l-2.6,7.6c0,0,4,2.7,6.9,3.2l4.9-6.4L109,194l5.4-5.9l1.5,8.5
		c0,0,3.2,1.8,5.7,2l1.8-10l6.1,12.8v-14.6l15.1,18.7l-7.2-22.8l12.1,8.7l-5.4-10.4c0,0,2.5,2.3,7.1,2.5l24.3,10.5l-12.4-10
		C163.1,184,96.7,179.5,93.3,140.1z"/>
	<path class="st6" d="M120.7,210.4l-1.5,18.9l-2.3-20.2C116.9,209.1,118.1,210.9,120.7,210.4z"/>
	<path class="st7" d="M213,102.5c0,0-48.1,35.8-98.7,40.4c0,0,1.5-28.1,7.7-44c0,0,43.5-12.8,73.2-14.8L213,102.5z"/>
	<path class="st8" d="M96.9,110.5c0,0-5.6,34.1-1.7,37.5c0,0-28.6,5.1-31.6,3.2C63.5,151.2,61.6,127.6,96.9,110.5z"/>
</g>
<g>
	<path class="st9" d="M319.9,70.7v59.7c0,0-0.3,26.2,26.6,26.2H431v17.9h-78.3c0,0-48.1,5.6-48.1-51.9V70.7H319.9L319.9,70.7z"/>
	<path class="st9" d="M579.3,87.6h-87.5c0,0-23,2-23,22.5v25.1c0,0,3.6,21.5,27.1,21.5h83.4v18.1h-84.4c0,0-41.9-2.7-41.9-49.8
		c0,0-8.2-54.2,51.7-54.2h74.7L579.3,87.6L579.3,87.6z"/>
	<path class="st9" d="M713.7,87.4h-64.1c0,0-23-1.3-23,31.8c0,0-3.6,37.6,33.4,37.6h44.5c0,0,22.3-2,22.3-27.7H683v-15.7h59.1v23.8
		c0,0-5,37.4-42.6,37.4h-45.7c0,0-41.1,0-41.6-45c0,0-8.6-59,43.2-59h58.7L713.7,87.4z"/>
	<rect x="308.2" y="77.2" class="st11" width="7.7" height="43.4"/>
	<path class="st11" d="M457.8,133.2v-23c0,0,1.2-29.9,34.9-33v4.2c0,0-27.2,6.1-27.2,28v23.8H457.8L457.8,133.2z"/>
	<path class="st11" d="M615.1,130.9v-23c0,0,1.2-29.9,34.9-33v4.2c0,0-27.2,6.1-27.2,28v23.8H615.1z"/>
	<polygon class="st11" points="686.5,118.1 686.5,122.7 708.2,119.1 	"/>
</g>
</svg>
